<?xml version="1.0" standalone="no"?>
<svg xmlns:xlink="http://www.w3.org/1999/xlink" id="wave" style="transform:rotate(180deg); transition: 0.3s" viewBox="0 0 1440 490" version="1.1" xmlns="http://www.w3.org/2000/svg"><defs><linearGradient id="sw-gradient-0" x1="0" x2="0" y1="1" y2="0"><stop stop-color="rgba(40, 48, 121, 1)" offset="0%"/><stop stop-color="rgba(6, 141, 233, 1)" offset="100%"/></linearGradient></defs><path style="transform:translate(0, 0px); opacity:1" fill="url(#sw-gradient-0)" d="M0,245L60,253.2C120,261,240,278,360,245C480,212,600,131,720,114.3C840,98,960,147,1080,204.2C1200,261,1320,327,1440,343C1560,359,1680,327,1800,310.3C1920,294,2040,294,2160,310.3C2280,327,2400,359,2520,343C2640,327,2760,261,2880,220.5C3000,180,3120,163,3240,138.8C3360,114,3480,82,3600,114.3C3720,147,3840,245,3960,277.7C4080,310,4200,278,4320,277.7C4440,278,4560,310,4680,318.5C4800,327,4920,310,5040,326.7C5160,343,5280,392,5400,367.5C5520,343,5640,245,5760,187.8C5880,131,6000,114,6120,122.5C6240,131,6360,163,6480,155.2C6600,147,6720,98,6840,65.3C6960,33,7080,16,7200,65.3C7320,114,7440,229,7560,277.7C7680,327,7800,310,7920,253.2C8040,196,8160,98,8280,49C8400,0,8520,0,8580,0L8640,0L8640,490L8580,490C8520,490,8400,490,8280,490C8160,490,8040,490,7920,490C7800,490,7680,490,7560,490C7440,490,7320,490,7200,490C7080,490,6960,490,6840,490C6720,490,6600,490,6480,490C6360,490,6240,490,6120,490C6000,490,5880,490,5760,490C5640,490,5520,490,5400,490C5280,490,5160,490,5040,490C4920,490,4800,490,4680,490C4560,490,4440,490,4320,490C4200,490,4080,490,3960,490C3840,490,3720,490,3600,490C3480,490,3360,490,3240,490C3120,490,3000,490,2880,490C2760,490,2640,490,2520,490C2400,490,2280,490,2160,490C2040,490,1920,490,1800,490C1680,490,1560,490,1440,490C1320,490,1200,490,1080,490C960,490,840,490,720,490C600,490,480,490,360,490C240,490,120,490,60,490L0,490Z"/></svg>