<?xml version="1.0" standalone="no"?>
<svg xmlns:xlink="http://www.w3.org/1999/xlink" id="wave" style="transform:rotate(180deg); transition: 0.3s" viewBox="0 0 1440 290" version="1.1" xmlns="http://www.w3.org/2000/svg"><defs><linearGradient id="sw-gradient-0" x1="0" x2="0" y1="1" y2="0"><stop stop-color="rgba(42, 42, 114, 1)" offset="0%"/><stop stop-color="rgba(1, 154, 248, 1)" offset="100%"/></linearGradient></defs><path style="transform:translate(0, 0px); opacity:1" fill="url(#sw-gradient-0)" d="M0,116L48,101.5C96,87,192,58,288,48.3C384,39,480,48,576,87C672,126,768,193,864,193.3C960,193,1056,126,1152,125.7C1248,126,1344,193,1440,203C1536,213,1632,164,1728,145C1824,126,1920,135,2016,159.5C2112,184,2208,222,2304,241.7C2400,261,2496,261,2592,217.5C2688,174,2784,87,2880,72.5C2976,58,3072,116,3168,120.8C3264,126,3360,77,3456,67.7C3552,58,3648,87,3744,111.2C3840,135,3936,155,4032,145C4128,135,4224,97,4320,72.5C4416,48,4512,39,4608,48.3C4704,58,4800,87,4896,101.5C4992,116,5088,116,5184,140.2C5280,164,5376,213,5472,232C5568,251,5664,242,5760,203C5856,164,5952,97,6048,58C6144,19,6240,10,6336,48.3C6432,87,6528,174,6624,193.3C6720,213,6816,164,6864,140.2L6912,116L6912,290L6864,290C6816,290,6720,290,6624,290C6528,290,6432,290,6336,290C6240,290,6144,290,6048,290C5952,290,5856,290,5760,290C5664,290,5568,290,5472,290C5376,290,5280,290,5184,290C5088,290,4992,290,4896,290C4800,290,4704,290,4608,290C4512,290,4416,290,4320,290C4224,290,4128,290,4032,290C3936,290,3840,290,3744,290C3648,290,3552,290,3456,290C3360,290,3264,290,3168,290C3072,290,2976,290,2880,290C2784,290,2688,290,2592,290C2496,290,2400,290,2304,290C2208,290,2112,290,2016,290C1920,290,1824,290,1728,290C1632,290,1536,290,1440,290C1344,290,1248,290,1152,290C1056,290,960,290,864,290C768,290,672,290,576,290C480,290,384,290,288,290C192,290,96,290,48,290L0,290Z"/></svg>